<svg width="21" height="20" viewBox="0 0 21 20" fill="none" xmlns="http://www.w3.org/2000/svg">
<path d="M0.418441 6.24259C0.689862 6.24259 0.836882 6.09164 0.836882 5.83288V2.93261C0.836882 1.531 1.60591 0.797844 3.07611 0.797844H6.12959C6.40101 0.797844 6.55934 0.657682 6.55934 0.398922C6.55934 0.140162 6.40101 0 6.12959 0H3.05349C1.05176 0 0 0.991914 0 2.88949V5.83288C0 6.09164 0.14702 6.24259 0.418441 6.24259ZM20.5602 6.24259C20.8316 6.24259 20.9786 6.09164 20.9786 5.83288V2.88949C20.9786 1.01348 19.9381 0 17.9364 0H14.849C14.5776 0 14.4192 0.140162 14.4192 0.398922C14.4192 0.657682 14.5776 0.797844 14.849 0.797844H17.9025C19.3274 0.797844 20.1417 1.531 20.1417 2.93261V5.83288C20.1417 6.09164 20.2887 6.24259 20.5602 6.24259ZM9.56759 11.4501H9.66938C10.5854 11.4501 11.0491 11.0189 11.0491 10.1348V6.8248C11.0491 6.57682 10.9247 6.45822 10.6646 6.45822C10.4158 6.45822 10.2801 6.57682 10.2801 6.8248V10.2318C10.2801 10.5229 10.0313 10.7062 9.78247 10.7062H9.39796C9.18308 10.7062 9.02475 10.8571 9.02475 11.062C9.02475 11.3208 9.19439 11.4501 9.56759 11.4501ZM6.42363 8.97035C6.76291 8.97035 6.97778 8.7655 6.97778 8.44205V7.00809C6.97778 6.67385 6.76291 6.469 6.42363 6.469C6.09567 6.469 5.88079 6.68464 5.88079 7.00809V8.44205C5.88079 8.7655 6.09567 8.97035 6.42363 8.97035ZM14.4532 8.97035C14.7811 8.97035 14.996 8.7655 14.996 8.44205V7.00809C14.996 6.68464 14.7811 6.469 14.4532 6.469C14.1139 6.469 13.8877 6.67385 13.8877 7.00809V8.44205C13.8877 8.7655 14.1139 8.97035 14.4532 8.97035ZM10.3932 14.7493C11.6372 14.7493 12.8812 14.2534 13.7972 13.3801C13.8651 13.3261 13.933 13.2291 13.933 13.0889C13.933 12.8733 13.7633 12.7332 13.5597 12.7332C13.4353 12.7332 13.3336 12.7655 13.1865 12.9164C12.508 13.5633 11.4562 14.027 10.3932 14.027C9.3301 14.027 8.28965 13.5633 7.59979 12.9164C7.46408 12.7763 7.3623 12.7332 7.22659 12.7332C7.02302 12.7332 6.85338 12.8733 6.85338 13.0889C6.85338 13.2183 6.92124 13.3154 6.98909 13.3801C7.88252 14.2641 9.14915 14.7493 10.3932 14.7493ZM3.05349 20H6.12959C6.40101 20 6.55934 19.8598 6.55934 19.6011C6.55934 19.3423 6.40101 19.2022 6.12959 19.2022H3.07611C1.60591 19.2022 0.836882 18.469 0.836882 17.0566V14.1671C0.836882 13.9084 0.689862 13.7466 0.418441 13.7466C0.14702 13.7466 0 13.9084 0 14.1671V17.0997C0 19.0081 1.05176 20 3.05349 20ZM14.849 20H17.9364C19.9381 20 20.9786 18.9757 20.9786 17.0997V14.1671C20.9786 13.9084 20.8316 13.7466 20.5602 13.7466C20.2887 13.7466 20.1417 13.9084 20.1417 14.1671V17.0566C20.1417 18.469 19.3274 19.2022 17.9025 19.2022H14.849C14.5776 19.2022 14.4192 19.3423 14.4192 19.6011C14.4192 19.8598 14.5776 20 14.849 20Z" fill="#1C2439"/>
</svg>
