<svg width="20" height="20" viewBox="0 0 20 20" fill="none" xmlns="http://www.w3.org/2000/svg">
<path d="M16.0947 4.97214C16.2143 5.06291 16.2727 5.21715 16.2405 5.36345C16.208 5.50987 16.0936 5.62415 15.9469 5.65634C15.8263 5.6828 15.7145 5.68099 15.3709 5.41688C15.2181 5.29976 14.9926 5.10218 14.7843 4.82663L14.6931 4.70566C13.9128 3.66789 12.0858 1.23782 9.44718 1.36967C7.27118 1.5285 5.72821 3.17187 4.9865 6.12244C4.96134 6.22267 4.94576 6.28421 4.9287 6.33147C4.81543 6.814 4.62505 7.41519 4.35126 7.61299C4.28303 7.66223 4.20467 7.68569 4.1267 7.68569C4.00709 7.68569 3.88974 7.63022 3.81489 7.52619C3.69471 7.36022 3.72684 7.13046 3.88396 7.00325C3.96 6.90517 4.10268 6.49437 4.18722 6.1272C4.19232 6.10538 4.19929 6.08414 4.20818 6.06368C4.21515 6.03869 4.22892 5.98401 4.24116 5.935C4.35902 5.46731 4.67123 4.22494 5.4288 3.05662C6.40787 1.54793 7.74193 0.722592 9.39602 0.603205C9.39874 0.603035 9.40123 0.603035 9.40418 0.602751C12.4524 0.446931 14.4531 3.10762 15.3071 4.24381L15.3971 4.36314C15.6309 4.67223 15.907 4.86471 16.0024 4.92041C16.0346 4.93293 16.0655 4.95027 16.0947 4.97214Z" fill="black"/>
<path d="M6.32445 7.12979C6.03474 6.40542 6.02777 5.65703 6.30542 5.07669C6.55326 4.55903 7.01511 4.18375 7.64067 3.99218C8.55939 3.71102 9.6732 4.22126 10.6936 5.39026C10.7067 5.40448 12.1592 6.93227 13.6842 7.86606C13.6954 7.87286 14.8123 8.54278 15.9781 8.86031C16.1829 8.91607 16.3035 9.12713 16.2475 9.33191C16.1921 9.53658 15.9807 9.65761 15.776 9.60151C14.5078 9.25615 13.3363 8.55354 13.285 8.52255C11.6306 7.50948 10.1297 5.91263 10.117 5.89801C9.49766 5.18832 8.58092 4.50786 7.86596 4.72692C7.44535 4.85577 7.15314 5.08508 6.99857 5.40851C6.81305 5.79557 6.8275 6.31867 7.03795 6.84427C7.42943 7.82243 8.64812 9.00361 10.4702 10.1702C11.384 10.7555 13.6841 12.1919 15.3084 12.8864C15.5039 12.9699 15.5941 13.1955 15.511 13.3906C15.4486 13.5364 15.3067 13.6236 15.1578 13.6236C15.1074 13.6236 15.0561 13.6139 15.0069 13.5928C13.3293 12.8756 10.9856 11.4127 10.0556 10.8174C8.67226 9.93151 6.90184 8.57235 6.32445 7.12979Z" fill="black"/>
<path d="M12.5121 4.26111C12.6867 4.45336 12.8429 4.65939 13.0117 4.8564C13.2323 5.1145 13.4736 5.35559 13.7257 5.58287C13.9844 5.81682 14.1942 5.98426 14.4998 6.15957C14.8236 6.3456 15.154 6.53366 15.4898 6.69707C15.6054 6.75351 15.7042 6.78994 15.834 6.82909C16.0346 6.88921 16.1591 7.09609 16.1025 7.30166C16.0483 7.49986 15.8308 7.63035 15.6302 7.57012C15.2372 7.45192 14.881 7.24987 14.5263 7.04832C14.2269 6.87799 13.9295 6.72461 13.654 6.51519C13.1174 6.1071 12.6555 5.63058 12.2307 5.10934C12.059 4.89827 11.8751 4.69712 11.6831 4.50419C11.5781 4.39868 11.4695 4.29709 11.3589 4.19782C11.3011 4.14614 11.2425 4.09571 11.1835 4.0459C11.1533 4.02069 11.123 3.99587 11.0924 3.97105C11.0842 3.96442 11.0245 3.91745 11.0094 3.9051C10.7417 3.70015 10.4568 3.5181 10.157 3.36403C9.87384 3.21852 9.58973 3.11642 9.24471 3.0448C9.13031 3.02094 9.10549 3.01839 9.01976 3.00961C8.81153 2.98797 8.63548 2.85118 8.63548 2.6255C8.63548 2.43222 8.81119 2.21963 9.01976 2.24127C10.409 2.38446 11.5968 3.2528 12.5121 4.26111Z" fill="black"/>
<path d="M15.502 11.618C14.6675 11.3316 10.3818 9.7313 7.98239 6.36749C7.85909 6.19473 7.89904 5.95488 8.07203 5.83181C8.24456 5.70851 8.48464 5.74852 8.60737 5.92128C10.871 9.09408 14.956 10.618 15.7516 10.8914C15.7688 10.8971 15.7788 10.9007 15.7826 10.9022C15.9812 10.9775 16.0809 11.1993 16.006 11.3979C15.9478 11.5514 15.8017 11.6461 15.6464 11.6461C15.6028 11.6461 15.5584 11.6383 15.5153 11.6228L15.502 11.618Z" fill="black"/>
<path d="M5.04744 13.9052C5.57984 13.7277 6.2318 13.2637 6.86165 12.815C7.77454 12.165 8.56221 11.6035 9.20442 11.7142C9.6869 11.7976 10.5297 12.3361 11.8603 13.2133C12.8198 13.8458 13.9069 14.5623 14.3798 14.6897C14.5845 14.7448 14.7061 14.9557 14.6509 15.1605C14.6048 15.3322 14.4496 15.4452 14.2802 15.4452C14.2472 15.4452 14.2135 15.4409 14.1801 15.4318C13.5875 15.2723 12.5431 14.5839 11.4374 13.8552C10.5443 13.2664 9.43265 12.5337 9.07375 12.4718C8.74738 12.416 7.94906 12.9841 7.30742 13.4413C6.63126 13.9226 5.93188 14.4208 5.29058 14.6347C5.08909 14.702 4.87173 14.5928 4.80464 14.3919C4.73755 14.1898 4.84651 13.9723 5.04744 13.9052Z" fill="black"/>
<path d="M6.00951 15.7872C6.319 15.6751 6.82239 15.3642 7.30946 15.0635C8.33788 14.4281 8.99143 14.0424 9.46065 14.1235C9.93593 14.2055 10.9333 14.8838 12.6084 16.1063C12.8134 16.2557 12.9904 16.3852 13.1129 16.4721C13.2863 16.5942 13.3277 16.8343 13.2052 17.0072C13.1303 17.1135 13.0116 17.1701 12.891 17.1701C12.8147 17.1701 12.7372 17.1472 12.6696 17.0995C12.542 17.0094 12.3628 16.8785 12.1553 16.7268C11.4888 16.2403 9.71812 14.9476 9.33401 14.8812C9.09438 14.865 8.22972 15.3982 7.7133 15.717C7.16934 16.0532 6.65552 16.3708 6.27062 16.5097C6.07111 16.582 5.85103 16.4787 5.77867 16.2789C5.70665 16.0796 5.80978 15.8593 6.00951 15.7872Z" fill="black"/>
<path d="M7.30717 17.6971C7.52283 17.5562 7.72143 17.4146 7.91334 17.2777C8.54354 16.8279 9.08801 16.4391 9.68489 16.5428C10.3575 16.6588 11.4278 17.7353 11.6356 17.9498C11.783 18.1022 11.7792 18.3453 11.6267 18.4929C11.5522 18.5652 11.4557 18.6013 11.3594 18.6013C11.2589 18.6013 11.1589 18.5622 11.0832 18.4842C10.5689 17.9527 9.838 17.3489 9.55412 17.2999C9.27375 17.2518 8.84986 17.5535 8.35905 17.9033C8.17042 18.0382 7.95635 18.191 7.72692 18.3408C7.54912 18.4567 7.31062 18.4067 7.19503 18.229C7.0795 18.0512 7.12959 17.8131 7.30717 17.6971Z" fill="black"/>
<path d="M3.92633 9.76666C4.24664 9.6314 4.58135 9.48929 4.85083 9.26486C5.14791 9.01815 5.286 8.69381 5.34765 8.31956C5.42794 7.83147 6.16823 8.03914 6.08834 8.52383C5.9243 9.52063 5.19058 10.0599 4.31412 10.4303C4.12125 10.5118 3.90423 10.4905 3.78869 10.2924C3.69282 10.1294 3.73317 9.84831 3.92633 9.76666Z" fill="black"/>
<path d="M4.67191 11.7715C4.96049 11.6827 5.17915 11.5698 5.48478 11.3895C6.04404 11.0591 6.554 10.5802 6.80178 9.96895C6.88054 9.77516 7.05466 9.64008 7.27457 9.70065C7.45878 9.75131 7.62163 9.97881 7.54292 10.1733C7.08492 11.3023 6.0339 12.1556 4.87629 12.5122C4.40123 12.6586 4.19997 11.917 4.67191 11.7715Z" fill="black"/>
<path d="M19.3984 2.46231C19.3984 1.43141 18.5627 0.595689 17.5318 0.595689L15.963 0.595689C15.7985 0.595689 15.6651 0.46234 15.6651 0.297844C15.6651 0.133349 15.7985 -3.66796e-07 15.963 -3.52415e-07L17.8297 -1.89224e-07C19.0251 -8.47184e-08 19.9941 0.969065 19.9941 2.16447L19.9941 4.03109C19.9941 4.19558 19.8608 4.32894 19.6963 4.32894C19.5318 4.32894 19.3984 4.19559 19.3984 4.03109L19.3984 2.46231Z" fill="black"/>
<path d="M4.03126 -2.60384e-08C4.19575 -1.16578e-08 4.3291 0.13335 4.3291 0.297845C4.3291 0.46234 4.19575 0.59569 4.03126 0.59569L2.46218 0.595689C1.43128 0.595689 0.595562 1.4314 0.595562 2.46231L0.595562 4.03112C0.595562 4.1956 0.462224 4.32893 0.297744 4.32893C0.133264 4.32893 -7.2846e-05 4.1956 -7.28317e-05 4.03112L-7.26685e-05 2.16447C-7.2564e-05 0.969065 0.968992 -2.9375e-07 2.16439 -1.89245e-07L4.03126 -2.60384e-08Z" fill="black"/>
<path d="M19.4043 15.9502C19.4043 15.7857 19.5377 15.6523 19.7022 15.6523C19.8666 15.6523 20 15.7857 20 15.9502L20 17.817C20 19.0124 19.031 19.9814 17.8356 19.9814L15.9691 19.9814C15.8046 19.9814 15.6712 19.848 15.6712 19.6835C15.6712 19.5191 15.8046 19.3857 15.9691 19.3857L17.5378 19.3857C18.5686 19.3857 19.4043 18.55 19.4043 17.5192L19.4043 15.9502Z" fill="black"/>
<path d="M0.601843 17.519C0.601843 18.55 1.43758 19.3857 2.46852 19.3857L4.03748 19.3857C4.20198 19.3857 4.33533 19.5191 4.33533 19.6835C4.33533 19.848 4.20198 19.9814 4.03748 19.9814L2.17068 19.9814C0.975241 19.9814 0.00615091 19.0123 0.00615101 17.8169L0.00615117 15.9502C0.00615119 15.7857 0.139502 15.6523 0.303997 15.6523C0.468493 15.6523 0.601843 15.7857 0.601843 15.9502L0.601843 17.519Z" fill="black"/>
</svg>
