<svg width="1578" height="447" viewBox="0 0 1578 447" fill="none" xmlns="http://www.w3.org/2000/svg">
<path fill-rule="evenodd" clip-rule="evenodd" d="M456.769 151.457C463.468 161.784 471.796 170.753 481.753 178.362C491.711 185.971 505.199 195.03 522.217 205.538C540.684 217.134 555.258 227.098 565.94 235.432C576.621 243.766 585.674 254.003 593.097 266.142C600.519 278.28 604.231 292.503 604.231 308.808C604.231 327.288 599.433 343.775 589.838 358.269C580.242 372.764 566.664 384.087 549.102 392.24C531.541 400.393 511.536 404.469 489.086 404.469C473.878 404.469 458.218 402.476 442.104 398.49C425.991 394.505 413.771 389.613 405.443 383.815C402.184 381.641 400.373 378.199 400.011 373.488L396.752 290.872V290.329C396.752 288.879 397.658 288.064 399.468 287.883C401.278 287.701 402.365 288.336 402.727 289.785C414.676 319.86 428.345 344.5 443.734 363.705C459.123 382.909 478.766 392.512 502.664 392.512C518.234 392.512 531.269 388.254 541.77 379.739C552.271 371.223 557.521 357.001 557.521 337.072C557.521 321.128 553.991 307.178 546.93 295.22C539.869 283.263 531.179 273.298 520.859 265.326C510.54 257.354 496.509 247.571 478.766 235.976C461.386 224.743 447.807 215.231 438.031 207.441C428.254 199.65 419.926 190.048 413.046 178.634C406.167 167.22 402.727 153.903 402.727 138.684C402.727 119.842 407.977 103.899 418.478 90.8541C428.979 77.8094 442.647 68.1166 459.485 61.7754C476.322 55.4342 493.974 52.2637 512.441 52.2637C524.752 52.2637 537.063 53.4413 549.374 55.7966C561.685 58.1519 572.005 61.1413 580.333 64.7648C585.764 66.9389 588.48 70.3812 588.48 75.0918L590.109 149.011C590.109 150.099 589.114 150.823 587.122 151.186C585.131 151.548 583.954 151.186 583.592 150.099C576.35 127.995 566.664 107.975 554.534 90.0388C542.404 72.1023 524.209 63.1342 499.948 63.1342C483.654 63.1342 470.71 67.8447 461.114 77.2659C451.519 86.6871 446.721 99.5504 446.721 115.856C446.721 129.263 450.07 141.13 456.769 151.457ZM780.358 363.161C781.444 363.161 782.44 363.886 783.345 365.335C784.25 366.785 784.16 367.872 783.074 368.596C769.676 381.279 757.003 390.428 745.054 396.045C733.105 401.661 720.432 404.469 707.034 404.469C691.464 404.469 678.339 400.755 667.657 393.327C656.975 385.899 651.634 373.488 651.634 356.095V233.258C651.634 221.301 649.733 213.329 645.931 209.343C642.129 205.357 634.797 203.364 623.934 203.364C623.572 203.364 623.12 202.911 622.576 202.005C622.033 201.099 621.762 200.103 621.762 199.016C621.762 197.929 622.033 196.932 622.576 196.027C623.12 195.121 623.572 194.668 623.934 194.668C657.971 193.218 679.334 178.543 688.024 150.642C688.749 149.193 690.288 148.468 692.641 148.468C694.995 148.468 696.172 149.193 696.172 150.642V193.581C713.19 193.218 737.269 191.407 768.409 188.145C769.133 188.145 769.948 189.504 770.853 192.222C771.758 194.94 772.211 197.929 772.211 201.19C772.211 204.451 771.577 207.712 770.31 210.974C769.042 214.235 767.685 215.684 766.236 215.322C745.959 210.611 722.604 207.712 696.172 206.625V338.159C696.172 352.291 699.702 362.708 706.763 369.412C713.824 376.115 723.69 379.467 736.364 379.467C751.572 379.467 765.874 374.213 779.272 363.705L780.358 363.161ZM994.18 363.705C994.904 363.705 995.719 364.429 996.624 365.879C997.53 367.328 997.62 368.415 996.896 369.14C983.498 381.46 970.101 390.428 956.704 396.045C943.306 401.661 928.823 404.469 913.253 404.469C891.165 404.469 872.065 399.578 855.952 389.794C839.839 380.01 827.528 367.147 819.018 351.204C810.509 335.26 806.255 318.048 806.255 299.568C806.255 278.19 811.505 258.623 822.006 240.868C832.506 223.112 846.899 209.071 865.185 198.744C883.471 188.417 903.838 183.254 926.288 183.254C948.014 183.254 964.851 188.508 976.8 199.016C988.749 209.524 994.723 225.105 994.723 245.759C994.723 256.268 992.551 261.522 988.206 261.522L855.68 262.065C855.318 265.326 855.137 270.218 855.137 276.74C855.137 308.627 862.469 333.901 877.134 352.562C891.799 371.224 912.709 380.554 939.866 380.554C950.005 380.554 958.514 379.376 965.394 377.021C972.274 374.666 981.507 370.408 993.094 364.248L994.18 363.705ZM873.875 209.615C865.366 219.942 859.663 234.164 856.766 252.282L943.668 250.651C942.944 212.966 930.633 194.124 906.735 194.124C893.338 194.124 882.384 199.288 873.875 209.615ZM1229.47 368.596C1230.92 368.596 1231.83 369.412 1232.19 371.042C1232.55 372.673 1232.01 373.85 1230.56 374.575L1174.62 401.208C1173.17 401.933 1171.54 402.295 1169.73 402.295C1164.3 402.295 1159.14 399.125 1154.25 392.783C1149.36 386.442 1146.19 378.018 1144.74 367.509L1119.76 384.902C1111.07 391.062 1103.19 395.41 1096.13 397.947C1089.07 400.483 1081.2 401.752 1072.51 401.752C1057.66 401.752 1046.35 398.219 1038.56 391.153C1030.78 384.087 1026.88 374.756 1026.88 363.161C1026.88 353.378 1029.51 345.406 1034.76 339.246C1040.01 333.086 1046.71 328.104 1054.86 324.299C1063 320.494 1075.04 315.693 1090.97 309.895L1143.66 290.329V257.717C1143.66 235.251 1141.4 218.855 1136.87 208.528C1132.34 198.201 1125.19 193.037 1115.42 193.037C1103.47 193.037 1094.87 197.476 1089.62 206.354C1084.37 215.231 1081.2 225.105 1080.11 235.976C1077.94 254.456 1068.71 263.696 1052.41 263.696C1044.45 263.696 1038.56 261.884 1034.76 258.26C1030.96 254.637 1029.06 250.108 1029.06 244.672C1029.06 234.526 1035.12 224.652 1047.25 215.05C1059.38 205.448 1074.05 197.657 1091.25 191.678C1108.44 185.7 1123.56 182.71 1136.6 182.71C1152.17 182.71 1164.57 187.602 1173.8 197.385C1183.04 207.169 1187.65 221.844 1187.65 241.411V339.246C1187.65 350.479 1189.46 358.994 1193.08 364.792C1196.7 370.589 1201.96 373.488 1208.83 373.488C1214.27 373.488 1220.78 371.858 1228.39 368.596H1229.47ZM1143.66 358.813V299.568L1111.07 313.157C1101.66 316.78 1093.96 321.038 1087.99 325.93C1082.01 330.821 1079.02 337.796 1079.02 346.855C1079.02 355.552 1081.83 362.527 1087.44 367.781C1093.06 373.035 1099.85 375.662 1107.81 375.662C1114.33 375.662 1121.21 373.488 1128.45 369.14L1143.66 358.813ZM1411.25 195.067C1418.86 200.502 1422.66 207.024 1422.66 214.634C1422.66 221.518 1420.58 227.135 1416.41 231.483C1412.25 235.831 1406.54 238.005 1399.3 238.005C1394.6 238.005 1390.7 237.009 1387.62 235.016C1384.55 233.023 1381.38 230.215 1378.12 226.591C1374.86 223.33 1371.96 220.884 1369.43 219.254C1366.9 217.623 1363.82 216.808 1360.2 216.808C1356.21 216.808 1351.96 218.348 1347.43 221.428C1342.91 224.508 1335.94 230.939 1326.52 240.723V358.125C1326.52 368.271 1327.97 375.97 1330.87 381.225C1333.76 386.479 1338.65 390.193 1345.53 392.367C1352.41 394.541 1362.55 395.628 1375.95 395.628C1377.4 395.628 1378.12 396.715 1378.12 398.889C1378.12 401.063 1377.4 402.15 1375.95 402.15C1364 402.15 1354.4 401.969 1347.16 401.607L1304.25 401.063L1272.75 401.607C1267.68 401.969 1260.62 402.15 1251.57 402.15C1250.48 402.15 1249.94 401.063 1249.94 398.889C1249.94 396.715 1250.48 395.628 1251.57 395.628C1263.88 395.628 1272.03 393.092 1276.01 388.019C1279.99 382.946 1281.98 372.981 1281.98 358.125V254.311C1281.98 242.716 1280.63 234.201 1277.91 228.765C1275.2 223.33 1270.76 220.612 1264.6 220.612C1259.17 220.612 1250.12 223.33 1237.45 228.765H1236.9C1235.46 228.765 1234.37 227.859 1233.65 226.048C1232.92 224.236 1233.1 223.149 1234.19 222.786L1305.34 188.001C1307.51 187.276 1308.78 186.914 1309.14 186.914C1312.76 186.914 1316.38 190.809 1320 198.6C1323.63 206.39 1325.8 216.626 1326.52 229.309C1340.64 213.365 1352.41 202.314 1361.83 196.154C1371.24 189.994 1379.75 186.914 1387.35 186.914C1395.68 186.914 1403.65 189.631 1411.25 195.067ZM1486.88 244.672C1494.67 252.282 1505.98 260.253 1520.83 268.587C1533.86 275.834 1543.91 281.813 1550.97 286.524C1558.03 291.234 1564.19 297.576 1569.44 305.547C1574.69 313.519 1577.31 323.121 1577.31 334.354C1577.31 346.674 1574.23 358.088 1568.08 368.596C1561.92 379.105 1552.78 387.62 1540.65 394.142C1528.52 400.665 1514.13 403.926 1497.47 403.926C1477.56 403.926 1459.27 398.853 1442.61 388.707C1440.44 386.533 1439.36 384.359 1439.36 382.185L1438.27 332.18C1438.27 331.093 1439.27 330.459 1441.26 330.278C1443.25 330.097 1444.42 330.368 1444.79 331.093C1450.94 349.211 1460.27 364.067 1472.76 375.662C1485.25 387.258 1498.56 393.055 1512.68 393.055C1521.73 393.055 1528.79 390.7 1533.86 385.989C1538.93 381.279 1541.47 374.213 1541.47 364.792C1541.47 351.022 1537.48 340.061 1529.52 331.908C1521.55 323.755 1509.96 315.693 1494.76 307.721C1482.44 301.199 1472.85 295.673 1465.97 291.144C1459.09 286.614 1453.21 280.454 1448.32 272.664C1443.43 264.873 1440.99 255.18 1440.99 243.585C1440.99 222.931 1448.5 207.531 1463.53 197.385C1478.55 187.24 1496.75 182.167 1518.11 182.167C1532.23 182.167 1546.72 184.884 1561.56 190.32C1564.82 191.769 1566.45 193.762 1566.45 196.298C1566.45 204.632 1566.27 211.155 1565.91 215.865L1565.36 241.955C1565.36 243.042 1564.28 243.585 1562.1 243.585C1559.93 243.585 1558.85 243.042 1558.85 241.955C1558.85 234.708 1555.95 227.189 1550.16 219.398C1544.36 211.608 1536.94 205.176 1527.89 200.103C1518.83 195.03 1509.6 192.494 1500.19 192.494C1483.53 192.494 1475.2 200.465 1475.2 216.409C1475.2 227.642 1479.1 237.063 1486.88 244.672Z" fill="#4A4A4A"/>
<path fill-rule="evenodd" clip-rule="evenodd" d="M101.761 231.314C99.4191 247.066 89.7477 260.457 76.2881 267.978C59.6535 277.691 38.2662 277.551 21.5413 265.868C3.72886 253.426 -3.5589 231.547 1.64326 211.594C6.54626 192.129 22.832 177.126 43.0932 173.92C48.7228 173.012 54.5007 173.043 60.1719 174.058C65.5733 175.004 70.6817 176.79 75.3546 179.275L138.664 89.0759C119.557 72.2508 115.843 43.3002 130.913 21.8297C147.097 -1.22869 178.818 -6.92784 201.764 9.10029C224.71 25.1284 230.19 56.8143 214.006 79.8727C199.672 100.294 173.152 107.1 151.334 97.2548L87.4764 188.235C94.9384 195.679 100.079 205.408 101.734 216.269H243.78C244.851 208.461 247.756 200.773 252.608 193.861C268.792 170.803 300.513 165.103 323.459 181.132C346.404 197.16 351.885 228.846 335.701 251.904C321.519 272.109 295.409 278.985 273.726 269.594L208.603 360.048C225.715 377.105 228.54 404.578 214.087 425.17C197.903 448.229 166.182 453.928 143.236 437.9C120.29 421.872 114.81 390.186 130.994 367.127C145.947 345.823 174.163 339.337 196.467 351.115L260.919 261.593C251.592 253.619 245.813 242.801 243.96 231.314H101.761Z" fill="#F05042"/>
</svg>
